<?xml version="1.0" standalone="no"?>
<!DOCTYPE svg PUBLIC "-//W3C//DTD SVG 20010904//EN"
 "http://www.w3.org/TR/2001/REC-SVG-20010904/DTD/svg10.dtd">
<svg version="1.0" xmlns="http://www.w3.org/2000/svg"
 width="1200.000000pt" height="1200.000000pt" viewBox="0 0 1200.000000 1200.000000"
 preserveAspectRatio="xMidYMid meet">
<metadata>
Created by potrace 1.14, written by Peter Selinger 2001-2017
</metadata>
<g transform="translate(0.000000,1200.000000) scale(0.100000,-0.100000)"
fill="#000000" stroke="none">
<path d="M9785 8589 c-725 -23 -1628 -72 -2135 -116 -102 -8 -198 -15 -215
-15 -16 1 -86 -5 -155 -12 -69 -7 -141 -13 -160 -14 -19 -1 -75 -6 -125 -12
-49 -5 -128 -12 -175 -15 -47 -3 -112 -10 -145 -15 -33 -5 -96 -12 -140 -15
-44 -3 -129 -12 -190 -20 -132 -17 -280 -33 -355 -40 -30 -3 -80 -10 -110 -15
-30 -5 -82 -11 -115 -14 -54 -5 -318 -41 -595 -80 -280 -40 -661 -103 -1007
-166 -29 -6 -78 -14 -109 -20 -31 -5 -63 -11 -72 -14 -10 -3 -34 -7 -55 -11
-22 -3 -69 -12 -105 -20 -37 -8 -78 -17 -92 -19 -50 -10 -316 -67 -350 -76
-19 -5 -66 -16 -105 -24 -530 -117 -1212 -319 -1604 -475 -209 -84 -256 -108
-307 -158 -88 -85 -84 -48 -84 -727 l0 -599 64 -146 c110 -251 188 -434 211
-496 13 -33 35 -86 49 -117 14 -31 39 -90 55 -130 16 -40 40 -100 54 -133 83
-202 160 -390 249 -610 55 -137 123 -304 150 -369 66 -158 128 -314 128 -323
0 -5 11 -21 25 -36 14 -15 23 -27 19 -27 -13 0 81 -67 121 -86 39 -19 141 -19
4072 -23 l4031 -3 70 37 c56 31 75 48 101 89 17 29 35 77 41 107 7 37 9 840 8
2405 l-3 2349 -21 46 c-27 59 -85 116 -143 142 -42 20 -66 21 -281 23 -129 1
-352 -2 -495 -7z m757 -47 c53 -23 121 -96 139 -148 21 -58 21 -4740 0 -4798
-18 -51 -76 -115 -126 -137 -38 -18 -193 -19 -4065 -19 -2711 0 -4037 3 -4062
10 -37 11 -121 88 -145 134 -6 12 -45 105 -86 207 -41 101 -114 281 -162 399
-48 118 -102 251 -120 295 -72 179 -319 777 -427 1030 -64 152 -65 153 -132
301 l-46 101 0 573 c0 418 3 584 12 613 22 73 93 128 247 192 75 31 154 64
176 72 22 8 51 20 65 25 42 17 239 84 370 126 69 22 150 47 180 57 30 10 69
21 85 25 36 10 261 72 360 99 64 18 271 70 487 120 426 101 1263 257 1778 331
80 12 201 30 270 40 128 19 168 25 445 60 219 27 484 57 835 94 600 63 1593
138 2205 166 529 24 666 30 1010 40 204 6 399 12 435 14 123 6 228 -2 272 -22z"/>
<path d="M10050 8313 c-388 -9 -1317 -49 -1690 -73 -1178 -76 -1936 -149
-2915 -281 -683 -91 -1574 -251 -2110 -379 -205 -49 -463 -112 -490 -121 -16
-5 -82 -23 -145 -40 -379 -102 -903 -280 -1113 -379 l-47 -22 0 -510 0 -509
26 -57 c108 -237 376 -876 619 -1477 51 -126 121 -297 154 -380 34 -82 85
-207 113 -277 l51 -128 3979 0 3978 0 0 2320 0 2321 -152 -3 c-84 -2 -200 -4
-258 -5z m-2634 -974 c45 -169 84 -538 84 -797 l0 -123 49 -72 c103 -153 263
-308 423 -410 54 -34 152 -87 162 -87 2 0 39 53 81 118 97 148 251 303 373
376 158 94 329 141 489 134 l72 -3 -67 -70 c-249 -259 -407 -579 -463 -935
-20 -123 -18 -479 4 -595 35 -193 97 -417 139 -505 7 -14 14 -28 16 -32 12
-26 -150 62 -278 151 -122 84 -139 98 -300 260 -306 307 -591 776 -765 1256
-18 49 -37 91 -42 92 -5 2 -17 -29 -27 -69 -73 -309 -268 -695 -532 -1055 -86
-117 -247 -319 -274 -343 -3 -3 -45 -49 -94 -103 -49 -53 -91 -96 -93 -93 -2
2 4 59 14 127 25 175 24 626 -1 789 -85 556 -346 1007 -741 1282 -44 31 -101
66 -127 79 -27 13 -48 26 -48 29 0 12 105 39 197 51 322 43 710 -125 1051
-455 l83 -81 45 50 c53 61 178 223 219 285 46 71 49 75 74 121 13 24 27 46 30
49 11 8 107 208 137 285 32 85 84 285 84 328 0 41 8 30 26 -34z"/>
</g>
</svg>
